<mxfile host="65bd71144e">
    <diagram id="iWe4LDpfTOa9zM9UH6-j" name="Page-1">
        <mxGraphModel dx="212" dy="326" grid="1" gridSize="10" guides="1" tooltips="1" connect="1" arrows="1" fold="1" page="1" pageScale="1" pageWidth="827" pageHeight="1169" background="#B3B3B3" math="0" shadow="1">
            <root>
                <mxCell id="0"/>
                <mxCell id="1" parent="0"/>
                <mxCell id="G0N91AVeveQITy-oS1RW-1" value="&lt;span style=&quot;font-size: 11.0pt ; font-family: &amp;#34;calibri&amp;#34; , sans-serif&quot;&gt;Validity&amp;nbsp;&lt;/span&gt;" style="rounded=1;whiteSpace=wrap;html=1;sketch=1;" parent="1" vertex="1">
                    <mxGeometry x="260" y="290" width="120" height="60" as="geometry"/>
                </mxCell>
                <mxCell id="G0N91AVeveQITy-oS1RW-19" value="&lt;span style=&quot;font-size: 11.0pt ; font-family: &amp;#34;calibri&amp;#34; , sans-serif&quot;&gt;Diagram&amp;nbsp;&lt;/span&gt;" style="rounded=1;whiteSpace=wrap;html=1;sketch=1;" parent="1" vertex="1">
                    <mxGeometry x="260" y="70" width="120" height="60" as="geometry"/>
                </mxCell>
                <mxCell id="G0N91AVeveQITy-oS1RW-21" value="Name" style="ellipse;whiteSpace=wrap;html=1;fontStyle=0;rounded=1;sketch=1;" parent="1" vertex="1">
                    <mxGeometry x="430" y="40" width="70" height="50" as="geometry"/>
                </mxCell>
                <mxCell id="G0N91AVeveQITy-oS1RW-23" style="rounded=1;orthogonalLoop=1;jettySize=auto;html=1;startArrow=none;startFill=0;endArrow=none;endFill=0;sketch=1;curved=1;" parent="1" source="G0N91AVeveQITy-oS1RW-19" target="G0N91AVeveQITy-oS1RW-21" edge="1">
                    <mxGeometry relative="1" as="geometry">
                        <mxPoint x="268.52" y="333.48" as="sourcePoint"/>
                        <mxPoint x="259.7323960179133" y="299.4702727393151" as="targetPoint"/>
                    </mxGeometry>
                </mxCell>
                <mxCell id="G0N91AVeveQITy-oS1RW-25" value="for" style="rhombus;whiteSpace=wrap;html=1;rounded=1;sketch=1;" parent="1" vertex="1">
                    <mxGeometry x="280" y="170" width="80" height="80" as="geometry"/>
                </mxCell>
                <mxCell id="G0N91AVeveQITy-oS1RW-26" style="rounded=1;orthogonalLoop=1;jettySize=auto;html=1;exitX=0.5;exitY=1;exitDx=0;exitDy=0;startArrow=none;startFill=0;endArrow=none;endFill=0;entryX=0.5;entryY=0;entryDx=0;entryDy=0;sketch=1;curved=1;" parent="1" source="G0N91AVeveQITy-oS1RW-25" target="G0N91AVeveQITy-oS1RW-1" edge="1">
                    <mxGeometry relative="1" as="geometry">
                        <mxPoint x="730" y="370" as="sourcePoint"/>
                        <mxPoint x="650" y="370" as="targetPoint"/>
                    </mxGeometry>
                </mxCell>
                <mxCell id="G0N91AVeveQITy-oS1RW-29" value="n" style="edgeLabel;html=1;align=center;verticalAlign=middle;resizable=0;points=[];rounded=1;sketch=1;" parent="G0N91AVeveQITy-oS1RW-26" connectable="0" vertex="1">
                    <mxGeometry x="0.5517" y="1" relative="1" as="geometry">
                        <mxPoint x="-1" y="-11" as="offset"/>
                    </mxGeometry>
                </mxCell>
                <mxCell id="G0N91AVeveQITy-oS1RW-27" style="rounded=1;orthogonalLoop=1;jettySize=auto;html=1;exitX=0.5;exitY=0;exitDx=0;exitDy=0;startArrow=none;startFill=0;endArrow=none;endFill=0;entryX=0.5;entryY=1;entryDx=0;entryDy=0;sketch=1;curved=1;" parent="1" source="G0N91AVeveQITy-oS1RW-25" target="G0N91AVeveQITy-oS1RW-19" edge="1">
                    <mxGeometry relative="1" as="geometry">
                        <mxPoint x="480" y="370" as="sourcePoint"/>
                        <mxPoint x="530" y="370" as="targetPoint"/>
                    </mxGeometry>
                </mxCell>
                <mxCell id="G0N91AVeveQITy-oS1RW-28" value="1" style="edgeLabel;html=1;align=center;verticalAlign=middle;resizable=0;points=[];rounded=1;sketch=1;" parent="G0N91AVeveQITy-oS1RW-27" connectable="0" vertex="1">
                    <mxGeometry x="0.6759" y="-1" relative="1" as="geometry">
                        <mxPoint x="-1" y="14" as="offset"/>
                    </mxGeometry>
                </mxCell>
                <mxCell id="v69tuiXmnpCeVHYQ9rQC-3" value="Author" style="ellipse;whiteSpace=wrap;html=1;fontStyle=0;rounded=1;sketch=1;" parent="1" vertex="1">
                    <mxGeometry x="450" y="90" width="70" height="50" as="geometry"/>
                </mxCell>
                <mxCell id="v69tuiXmnpCeVHYQ9rQC-4" style="rounded=1;orthogonalLoop=1;jettySize=auto;html=1;startArrow=none;startFill=0;endArrow=none;endFill=0;exitX=1;exitY=0.5;exitDx=0;exitDy=0;sketch=1;curved=1;" parent="1" source="G0N91AVeveQITy-oS1RW-19" target="v69tuiXmnpCeVHYQ9rQC-3" edge="1">
                    <mxGeometry relative="1" as="geometry">
                        <mxPoint x="400" y="135.51724137931035" as="sourcePoint"/>
                        <mxPoint x="279.7323960179133" y="349.4702727393151" as="targetPoint"/>
                    </mxGeometry>
                </mxCell>
                <mxCell id="v69tuiXmnpCeVHYQ9rQC-7" value="Country" style="ellipse;whiteSpace=wrap;html=1;fontStyle=0;rounded=1;sketch=1;" parent="1" vertex="1">
                    <mxGeometry x="430" y="290" width="70" height="50" as="geometry"/>
                </mxCell>
                <mxCell id="v69tuiXmnpCeVHYQ9rQC-8" style="rounded=1;orthogonalLoop=1;jettySize=auto;html=1;startArrow=none;startFill=0;endArrow=none;endFill=0;exitX=1;exitY=0.5;exitDx=0;exitDy=0;sketch=1;curved=1;" parent="1" source="G0N91AVeveQITy-oS1RW-1" target="v69tuiXmnpCeVHYQ9rQC-7" edge="1">
                    <mxGeometry relative="1" as="geometry">
                        <mxPoint x="390" y="330" as="sourcePoint"/>
                        <mxPoint x="259.7323960179133" y="549.4702727393151" as="targetPoint"/>
                    </mxGeometry>
                </mxCell>
                <mxCell id="v69tuiXmnpCeVHYQ9rQC-9" value="&lt;span style=&quot;font-size: 11.0pt ; font-family: &amp;#34;calibri&amp;#34; , sans-serif&quot;&gt;Shape&amp;nbsp;&lt;/span&gt;" style="rounded=1;whiteSpace=wrap;html=1;sketch=1;" parent="1" vertex="1">
                    <mxGeometry x="260" y="510" width="120" height="60" as="geometry"/>
                </mxCell>
                <mxCell id="v69tuiXmnpCeVHYQ9rQC-10" value="of" style="rhombus;whiteSpace=wrap;html=1;rounded=1;sketch=1;" parent="1" vertex="1">
                    <mxGeometry x="280" y="390" width="80" height="80" as="geometry"/>
                </mxCell>
                <mxCell id="v69tuiXmnpCeVHYQ9rQC-11" value="1" style="rounded=1;orthogonalLoop=1;jettySize=auto;html=1;exitX=0.5;exitY=1;exitDx=0;exitDy=0;startArrow=none;startFill=0;endArrow=none;endFill=0;entryX=0.5;entryY=0;entryDx=0;entryDy=0;sketch=1;curved=1;" parent="1" source="v69tuiXmnpCeVHYQ9rQC-10" target="v69tuiXmnpCeVHYQ9rQC-9" edge="1">
                    <mxGeometry relative="1" as="geometry">
                        <mxPoint x="730" y="590" as="sourcePoint"/>
                        <mxPoint x="650" y="590" as="targetPoint"/>
                        <Array as="points">
                            <mxPoint x="320" y="490"/>
                        </Array>
                    </mxGeometry>
                </mxCell>
                <mxCell id="v69tuiXmnpCeVHYQ9rQC-12" value="1" style="edgeLabel;html=1;align=center;verticalAlign=middle;resizable=0;points=[];rounded=1;sketch=1;" parent="v69tuiXmnpCeVHYQ9rQC-11" connectable="0" vertex="1">
                    <mxGeometry x="0.5517" y="1" relative="1" as="geometry">
                        <mxPoint x="-1" y="-11" as="offset"/>
                    </mxGeometry>
                </mxCell>
                <mxCell id="v69tuiXmnpCeVHYQ9rQC-13" value="Name" style="ellipse;whiteSpace=wrap;html=1;fontStyle=0;rounded=1;sketch=1;" parent="1" vertex="1">
                    <mxGeometry x="430" y="510" width="70" height="50" as="geometry"/>
                </mxCell>
                <mxCell id="v69tuiXmnpCeVHYQ9rQC-14" style="rounded=1;orthogonalLoop=1;jettySize=auto;html=1;startArrow=none;startFill=0;endArrow=none;endFill=0;exitX=1;exitY=0.5;exitDx=0;exitDy=0;sketch=1;curved=1;" parent="1" source="v69tuiXmnpCeVHYQ9rQC-9" target="v69tuiXmnpCeVHYQ9rQC-13" edge="1">
                    <mxGeometry relative="1" as="geometry">
                        <mxPoint x="390" y="550" as="sourcePoint"/>
                        <mxPoint x="259.7323960179133" y="769.4702727393151" as="targetPoint"/>
                    </mxGeometry>
                </mxCell>
                <mxCell id="v69tuiXmnpCeVHYQ9rQC-15" value="n" style="rounded=1;orthogonalLoop=1;jettySize=auto;html=1;exitX=0.5;exitY=0;exitDx=0;exitDy=0;startArrow=none;startFill=0;endArrow=none;endFill=0;entryX=0.5;entryY=1;entryDx=0;entryDy=0;sketch=1;curved=1;" parent="1" source="v69tuiXmnpCeVHYQ9rQC-10" target="G0N91AVeveQITy-oS1RW-1" edge="1">
                    <mxGeometry relative="1" as="geometry">
                        <mxPoint x="330" y="180" as="sourcePoint"/>
                        <mxPoint x="330" y="140" as="targetPoint"/>
                    </mxGeometry>
                </mxCell>
                <mxCell id="v69tuiXmnpCeVHYQ9rQC-16" value="n" style="edgeLabel;html=1;align=center;verticalAlign=middle;resizable=0;points=[];rounded=1;sketch=1;" parent="v69tuiXmnpCeVHYQ9rQC-15" connectable="0" vertex="1">
                    <mxGeometry x="0.6759" y="-1" relative="1" as="geometry">
                        <mxPoint x="-1" y="14" as="offset"/>
                    </mxGeometry>
                </mxCell>
                <mxCell id="v69tuiXmnpCeVHYQ9rQC-17" value="has children" style="rhombus;whiteSpace=wrap;html=1;rounded=1;sketch=1;" parent="1" vertex="1">
                    <mxGeometry x="160" y="500" width="80" height="80" as="geometry"/>
                </mxCell>
                <mxCell id="v69tuiXmnpCeVHYQ9rQC-19" value="n" style="rounded=1;orthogonalLoop=1;jettySize=auto;html=1;exitX=0;exitY=0.5;exitDx=0;exitDy=0;startArrow=none;startFill=0;endArrow=none;endFill=0;entryX=1;entryY=0.5;entryDx=0;entryDy=0;sketch=1;curved=1;" parent="1" source="v69tuiXmnpCeVHYQ9rQC-9" target="v69tuiXmnpCeVHYQ9rQC-17" edge="1">
                    <mxGeometry relative="1" as="geometry">
                        <mxPoint x="330" y="480" as="sourcePoint"/>
                        <mxPoint x="330" y="520" as="targetPoint"/>
                    </mxGeometry>
                </mxCell>
                <mxCell id="v69tuiXmnpCeVHYQ9rQC-21" value="&lt;span style=&quot;font-size: 11.0pt ; font-family: &amp;#34;calibri&amp;#34; , sans-serif&quot;&gt;Complex&amp;nbsp;&lt;/span&gt;" style="rounded=1;whiteSpace=wrap;html=1;sketch=1;" parent="1" vertex="1">
                    <mxGeometry x="170" y="620" width="120" height="60" as="geometry"/>
                </mxCell>
                <mxCell id="v69tuiXmnpCeVHYQ9rQC-22" value="&lt;span style=&quot;font-size: 11.0pt ; font-family: &amp;#34;calibri&amp;#34; , sans-serif&quot;&gt;Simple&amp;nbsp;&lt;/span&gt;" style="rounded=1;whiteSpace=wrap;html=1;sketch=1;" parent="1" vertex="1">
                    <mxGeometry x="340" y="620" width="120" height="60" as="geometry"/>
                </mxCell>
                <mxCell id="v69tuiXmnpCeVHYQ9rQC-23" value="Color" style="ellipse;whiteSpace=wrap;html=1;fontStyle=0;rounded=1;sketch=1;" parent="1" vertex="1">
                    <mxGeometry x="200" y="700" width="70" height="50" as="geometry"/>
                </mxCell>
                <mxCell id="v69tuiXmnpCeVHYQ9rQC-24" style="rounded=1;orthogonalLoop=1;jettySize=auto;html=1;startArrow=none;startFill=0;endArrow=none;endFill=0;exitX=0.5;exitY=1;exitDx=0;exitDy=0;sketch=1;curved=1;" parent="1" source="v69tuiXmnpCeVHYQ9rQC-21" target="v69tuiXmnpCeVHYQ9rQC-23" edge="1">
                    <mxGeometry relative="1" as="geometry">
                        <mxPoint x="90" y="740" as="sourcePoint"/>
                        <mxPoint x="-30.26760398208671" y="969.4702727393151" as="targetPoint"/>
                    </mxGeometry>
                </mxCell>
                <mxCell id="v69tuiXmnpCeVHYQ9rQC-25" value="Size" style="ellipse;whiteSpace=wrap;html=1;fontStyle=0;rounded=1;sketch=1;" parent="1" vertex="1">
                    <mxGeometry x="380" y="700" width="70" height="50" as="geometry"/>
                </mxCell>
                <mxCell id="v69tuiXmnpCeVHYQ9rQC-26" style="rounded=1;orthogonalLoop=1;jettySize=auto;html=1;startArrow=none;startFill=0;endArrow=none;endFill=0;exitX=0.5;exitY=1;exitDx=0;exitDy=0;sketch=1;curved=1;" parent="1" target="v69tuiXmnpCeVHYQ9rQC-25" edge="1">
                    <mxGeometry relative="1" as="geometry">
                        <mxPoint x="405" y="680" as="sourcePoint"/>
                        <mxPoint x="194.7323960179133" y="969.4702727393151" as="targetPoint"/>
                    </mxGeometry>
                </mxCell>
                <mxCell id="v69tuiXmnpCeVHYQ9rQC-27" value="1" style="rounded=1;orthogonalLoop=1;jettySize=auto;html=1;exitX=0.25;exitY=0;exitDx=0;exitDy=0;startArrow=none;startFill=0;endArrow=none;endFill=0;entryX=0.5;entryY=1;entryDx=0;entryDy=0;sketch=1;curved=1;" parent="1" source="v69tuiXmnpCeVHYQ9rQC-21" target="v69tuiXmnpCeVHYQ9rQC-17" edge="1">
                    <mxGeometry relative="1" as="geometry">
                        <mxPoint x="270" y="550" as="sourcePoint"/>
                        <mxPoint x="230" y="550" as="targetPoint"/>
                    </mxGeometry>
                </mxCell>
                <mxCell id="v69tuiXmnpCeVHYQ9rQC-29" value="is a" style="endArrow=classic;html=1;rounded=1;entryX=0.118;entryY=1.022;entryDx=0;entryDy=0;entryPerimeter=0;sketch=1;curved=1;" parent="1" target="v69tuiXmnpCeVHYQ9rQC-9" edge="1">
                    <mxGeometry width="50" height="50" relative="1" as="geometry">
                        <mxPoint x="275" y="620" as="sourcePoint"/>
                        <mxPoint x="310" y="590" as="targetPoint"/>
                    </mxGeometry>
                </mxCell>
                <mxCell id="v69tuiXmnpCeVHYQ9rQC-30" value="is a" style="endArrow=classic;html=1;rounded=1;entryX=0.815;entryY=1.015;entryDx=0;entryDy=0;entryPerimeter=0;exitX=0.16;exitY=-0.029;exitDx=0;exitDy=0;exitPerimeter=0;sketch=1;curved=1;" parent="1" source="v69tuiXmnpCeVHYQ9rQC-22" target="v69tuiXmnpCeVHYQ9rQC-9" edge="1">
                    <mxGeometry width="50" height="50" relative="1" as="geometry">
                        <mxPoint x="285" y="630" as="sourcePoint"/>
                        <mxPoint x="285" y="582.28" as="targetPoint"/>
                    </mxGeometry>
                </mxCell>
            </root>
        </mxGraphModel>
    </diagram>
</mxfile>